<svg id="GBM" xmlns="http://www.w3.org/2000/svg" viewBox="-678 748.5 241.1 105.5"><style>.st0{fill:#aeadb2}.st1{fill:#0875bb}.st2{fill:#4e4d50}</style><path class="st0" d="M-492.6 790.9l-3.4 10.3-3.3-10.3h-124.9v10.9h113l15.2 39.1 15.3-39.1h37.3l6.4-10.9zM-637.5 790.9h-34l-6.5 10.9h40.5c-.6-1.7-.9-3.6-.9-5.5.1-1.9.3-3.7.9-5.4z"/><g><path class="st1" d="M-504.7 774.4l-3.5-10.9h-23.9v10.9zM-609.3 763.5c-3.6-1.2-7.5-1.9-11.5-1.9s-7.9.7-11.5 1.9c-6.2 2.1-11.7 5.9-15.8 10.9h54.6c-4.1-5-9.6-8.8-15.8-10.9zM-532.1 777.2v10.9h31.9l-3.6-10.9zM-488.2 777.2l-3.5 10.9h31.8v-10.9zM-620.5 778.4c5.5 0 10.4 2.5 13.7 6.4l14.8-7.6h-58.2c-2.2 3.3-3.8 6.9-4.8 10.9h18.7c2.9-5.8 8.9-9.7 15.8-9.7zM-532.1 804.7h15.9v10.9h-15.9zM-620.5 814.2c-6.8 0-12.8-3.9-15.8-9.6H-655c1 3.9 2.7 7.6 4.9 10.9h58.6c2.2-3.3 3.9-6.9 4.9-10.9h-18.1c-3 5.8-9 9.6-15.8 9.6zM-532.1 818.4h15.9v10.9h-15.9zM-631.8 829.3c3.5 1.1 7.2 1.7 11 1.7s7.5-.6 11-1.7c6.4-2.1 12-5.9 16.2-10.9H-648c4.2 5 9.8 8.8 16.2 10.9zM-483.7 763.5l-3.6 10.9h27.4v-10.9zM-475.8 804.7h15.9v10.9h-15.9zM-475.8 818.4h15.9v10.9h-15.9zM-539.7 774.4c-2.3-6.3-8.4-10.9-15.6-10.9h-27.5v10.9h43.1zM-582.8 777.2h15.9v10.9h-15.9zM-582.8 804.7h15.9v10.9h-15.9zM-582.8 818.4v10.9h28.4c7.8 0 14.4-4.5 17.4-10.9h-45.8zM-538.9 777.2h-20.8v.2c3.3 0 6 2.7 6 6 0 1.9-.9 3.6-2.3 4.7h15.3c1.3-2.4 2.1-5.1 2.1-8.1-.1-.9-.2-1.9-.3-2.8zM-536.4 804.7h-16.8c1.4 1.1 2.2 2.8 2.2 4.7 0 3.3-2.7 6-6 6v.2h21c.4-1.5.7-3.1.7-4.8 0-2.2-.4-4.2-1.1-6.1z"/></g><g><path class="st2" d="M-451 829.3c-1.5 0-2.8-1.3-2.8-2.8 0-1.5 1.3-2.8 2.8-2.8s2.8 1.3 2.8 2.8c0 1.5-1.2 2.8-2.8 2.8zm0-5.2c-1.3 0-2.3 1-2.3 2.3 0 1.3 1 2.3 2.3 2.3 1.3 0 2.3-1 2.3-2.3.1-1.2-1-2.3-2.3-2.3z"/><path class="st2" d="M-452.1 825.1h.9c.3 0 .4 0 .5.1.3.1.5.4.5.8 0 .3-.1.6-.4.7l.1.2.5.9h-.7l-.5-.9h-.3v.9h-.7v-2.7zm1 1.2c.2 0 .3-.1.3-.3 0-.2-.1-.3-.4-.3h-.2v.7h.3z"/></g></svg>